<!--<?xml version="1.0" standalone="no"?><!DOCTYPE svg PUBLIC "-//W3C//DTD SVG 1.1//EN" "http://www.w3.org/Graphics/SVG/1.1/DTD/svg11.dtd"><svg t="1621323173930" class="icon" viewBox="0 0 1024 1024" version="1.1" xmlns="http://www.w3.org/2000/svg" p-id="3982" xmlns:xlink="http://www.w3.org/1999/xlink" width="200" height="200"><defs><style type="text/css"></style></defs><path d="M874.230791 149.769209a512 512 0 1 0 0 724.461582 512.884029 512.884029 0 0 0 0-724.461582z m-41.402014 683.059568a453.506763 453.506763 0 1 1 0-641.657554 454.317122 454.317122 0 0 1 0 641.657554z" fill="#FFA115" p-id="3983"></path><path d="M758.791367 482.532374H541.467626V265.208633a29.467626 29.467626 0 0 0-58.935252 0v217.323741H265.208633a29.467626 29.467626 0 0 0 0 58.935252h217.323741V758.791367a29.467626 29.467626 0 0 0 58.935252 0V541.467626H758.791367a29.467626 29.467626 0 0 0 0-58.935252z" fill="#FFA115" p-id="3984"></path></svg>-->
<svg t="1621345716449" class="icon" viewBox="0 0 1024 1024" version="1.1" xmlns="http://www.w3.org/2000/svg" p-id="1150" width="200" height="200"><path d="M512 0C228.266667 0 0 228.266667 0 512s228.266667 512 512 512 512-228.266667 512-512S795.733333 0 512 0z m256 533.333333H533.333333v234.666667c0 12.8-8.533333 21.333333-21.333333 21.333333s-21.333333-8.533333-21.333333-21.333333V533.333333H256c-12.8 0-21.333333-8.533333-21.333333-21.333333s8.533333-21.333333 21.333333-21.333333h234.666667V256c0-12.8 8.533333-21.333333 21.333333-21.333333s21.333333 8.533333 21.333333 21.333333v234.666667h234.666667c12.8 0 21.333333 8.533333 21.333333 21.333333s-8.533333 21.333333-21.333333 21.333333z" fill="#fa6405" p-id="1151"></path></svg>