<?xml version="1.0" standalone="no"?><!DOCTYPE svg PUBLIC "-//W3C//DTD SVG 1.1//EN" "http://www.w3.org/Graphics/SVG/1.1/DTD/svg11.dtd"><svg t="1621322483305" class="icon" viewBox="0 0 1024 1024" version="1.1" xmlns="http://www.w3.org/2000/svg" p-id="3091" xmlns:xlink="http://www.w3.org/1999/xlink" width="200" height="200"><defs><style type="text/css"></style></defs><path d="M853.333333 85.333333a64 64 0 0 1 64 64v725.333334a64 64 0 0 1-64 64H256a64 64 0 0 1-64-64v-128H160a32 32 0 0 1 0-64H192v-128H160a32 32 0 0 1 0-64H192v-128H160a32 32 0 0 1 0-64H192V149.333333a64 64 0 0 1 64-64h597.333333z m-158.698666 222.72a32 32 0 0 0-45.248 0l-94.4 94.357334-94.357334-94.378667a32 32 0 0 0-45.248 45.269333l72.810667 72.810667H416a32 32 0 0 0 0 64h105.258667v64H416a32 32 0 0 0 0 64h105.258667V736a32 32 0 0 0 64 0v-117.888H693.333333a32 32 0 1 0 0-64h-108.074666v-64H693.333333a32 32 0 1 0 0-64h-71.530666l72.832-72.810667a32 32 0 0 0 0-45.248z" fill="#FFA115" p-id="3092"></path></svg>