<svg t="1621489901389" class="icon" viewBox="0 0 1024 1024" version="1.1" xmlns="http://www.w3.org/2000/svg" p-id="4742" width="200" height="200"><path d="M441.864192 725.474304c-4.942848 14.490624-74.752 37.018624-144.360448 46.442496C137.536512 799.720448 104.930304 889.189376 97.67936 933.537792c0 0-0.794624 34.157568-0.077824 52.056064 0 0-75.193344-24.54016-85.917696-75.267072C7.44448 859.4432 43.75552 749.784064 212.257792 720.490496c24.39168-3.324928 48.656384-8.235008 72.361984-14.889984 12.827648-3.601408 26.730496-5.28384 37.33504-14.03392 11.078656-9.140224 8.03328-21.692416 6.90176-34.725888-5.2224-59.068416-35.651584-93.584384-62.496768-124.051456-9.572352-10.848256-18.120704-20.691968-24.548352-29.968384-29.807616-43.030528-32.989184-90.630144-33.240064-95.905792-0.036864-21.663744 8.436736-34.540544 16.251904-42.940416-6.975488-38.957056-7.448576-96.160768-1.13152-134.969344 3.214336-54.813696 47.158272-94.790656 52.236288-99.226624 2.592768-2.213888 5.334016-4.625408 7.708672-6.979584-2.305024-7.21408-3.872768-16.272384-1.826816-26.791936 4.745216-24.951808 25.202688-38.557696 60.855296-40.347648 14.429184-0.765952 27.943936-1.349632 41.458688-1.349632 4.461568 0 8.89344 0.333824 13.34272 0.473088-3.135488 3.575808-5.62176 7.947264-6.720512 13.671424-2.250752 11.737088 1.810432 21.14048 4.34176 30.384128-4.099072 6.572032-10.732544 12.617728-17.440768 18.347008-2.01216 1.748992-48.833536 43.302912-50.2784 94.564352-7.032832 40.290304-6.592512 104.173568 1.526784 148.220928 0.44032 2.39104 1.164288 6.008832 0.321536 7.313408-8.316928 7.69536-18.688 17.28512-18.64704 38.3232 0.077824 2.091008 2.8928 51.442688 32.914432 94.82752 6.67136 9.6256 15.552512 19.811328 25.478144 31.087616 30.104576 34.100224 67.51744 76.55936 73.8304 148.320256 2.934784 33.154048 0.642048 41.853952 0.52224 42.194944" p-id="4743" fill="#FFA115"></path><path d="M683.2384 984.20224l-23.379968 0-36.857856 0.283648-498.19648 0 0-23.989248c0 0-10.815488-134.006784 186.535936-168.308736 0 0 150.234112-20.28032 160.748544-61.595648 0 0 5.736448-4.596736 1.502208-52.578304-9.013248-102.161408-75.86816-150.234112-102.905856-189.293568-27.042816-39.063552-29.297664-84.13184-29.297664-84.13184 0-11.264 4.72064-15.391744 12.560384-22.626304 9.700352-8.950784 6.790144-18.4576 4.934656-28.527616-7.042048-38.23616-7.667712-99.662848-0.96768-138.138624 1.502208-45.820928 43.56608-82.625536 43.56608-82.625536 7.892992-6.695936 15.803392-14.062592 21.342208-22.898688 1.543168-2.460672 2.971648-5.09952 3.811328-7.897088 3.16928-10.548224-7.560192-18.292736-5.403648-29.51168 1.938432-10.116096 19.280896-10.61376 29.766656-11.164672 23.610368-1.243136 47.347712-2.172928 70.921216-0.366592 176.456704 13.52704 234.476544 78.485504 234.476544 78.485504 13.732864 16.449536 22.782976 36.566016 28.23168 57.184256 1.626112 6.16448 3.028992 12.45696 3.785728 18.79552 5.497856 31.602688 5.477376 64.559104 3.769344 96.494592-0.815104 15.22688-2.584576 30.215168-4.82304 45.282304-1.168384 7.8848-0.56832 15.222784 4.70016 21.523456 4.407296 5.271552 9.445376 8.95488 11.606016 15.881216 1.012736 3.238912 1.271808 6.736896 1.271808 10.112 0 0-2.250752 45.068288-29.293568 84.13184-27.042816 39.059456-93.897728 87.13216-102.909952 189.293568-4.235264 47.981568 1.502208 52.578304 1.502208 52.578304 10.518528 41.314304 160.748544 61.595648 160.748544 61.595648 199.561216 37.010432 186.535936 168.308736 186.535936 168.308736l0 23.989248L890.141696 984.487936l20.696064-0.283648-17.672192 0-36.64384 0L683.2384 984.204288 683.2384 984.20224z" p-id="4744" fill="#FFA115"></path></svg>