<?xml version="1.0" standalone="no"?><!DOCTYPE svg PUBLIC "-//W3C//DTD SVG 1.1//EN" "http://www.w3.org/Graphics/SVG/1.1/DTD/svg11.dtd"><svg t="1621323427397" class="icon" viewBox="0 0 1024 1024" version="1.1" xmlns="http://www.w3.org/2000/svg" p-id="5697" xmlns:xlink="http://www.w3.org/1999/xlink" width="200" height="200"><defs><style type="text/css"></style></defs><path d="M384.085333 384m-170.666666 0a170.666667 170.666667 0 1 0 341.333333 0 170.666667 170.666667 0 1 0-341.333333 0Z" fill="#FFA115" p-id="5698"></path><path d="M341.333333 597.333333h85.333334a256 256 0 0 1 256 256H85.333333a256 256 0 0 1 256-256z" fill="#FFA115" p-id="5699"></path><path d="M682.752 597.333333a256 256 0 0 1 255.786667 246.4l0.213333 9.6H725.333333a298.410667 298.410667 0 0 0-144-255.530666c5.290667-0.298667 10.666667-0.469333 16.085334-0.469334h85.333333z m-85.333333-384A170.666667 170.666667 0 1 1 529.066667 540.458667 212.650667 212.650667 0 0 0 597.418667 384a212.736 212.736 0 0 0-68.266667-156.416A169.216 169.216 0 0 1 597.418667 213.333333z" fill="#FFA115" p-id="5700"></path></svg>