<?xml version="1.0" standalone="no"?><!DOCTYPE svg PUBLIC "-//W3C//DTD SVG 1.1//EN" "http://www.w3.org/Graphics/SVG/1.1/DTD/svg11.dtd"><svg t="1621323405190" class="icon" viewBox="0 0 1024 1024" version="1.1" xmlns="http://www.w3.org/2000/svg" p-id="5435" xmlns:xlink="http://www.w3.org/1999/xlink" width="200" height="200"><defs><style type="text/css"></style></defs><path d="M710.6 592.64c-34.76-35.29-75.26-63.01-120.36-82.39-7.6-3.26-15.28-6.26-23.03-9C616.28 463.21 648 403.29 648 336c0-114.69-92.11-208-205.33-208s-205.33 93.31-205.33 208c0 67.29 31.72 127.21 80.8 165.26-7.75 2.74-15.43 5.74-23.03 9-45.11 19.37-85.6 47.09-120.36 82.39-34.73 35.26-61.99 76.32-81.03 122.04C73.99 762 64 812.23 64 864c0 17.67 14.33 32 32 32s32-14.33 32-32c0-176.45 141.16-320 314.67-320 173.51 0 314.67 143.55 314.67 320 0 17.67 14.33 32 32 32s32-14.33 32-32c0-51.77-9.99-102-29.7-149.32-19.05-45.72-46.32-86.77-81.04-122.04zM301.33 336c0-79.4 63.4-144 141.33-144S584 256.6 584 336s-63.4 144-141.33 144-141.34-64.6-141.34-144z" p-id="5436" fill="#FFA115"></path><path d="M885.37 599.86c-23.5-32.05-51.65-60.1-83.65-83.36a377.22 377.22 0 0 0-58.05-34.72 208.22 208.22 0 0 0 23.19-35.61c15.09-29.39 23.07-62.54 23.07-95.87 0-83.7-49.16-158.9-125.24-191.57-16.24-6.98-35.06 0.54-42.03 16.77-6.97 16.24 0.54 35.06 16.78 42.03 52.54 22.56 86.49 74.68 86.49 132.77 0 45.62-21.49 88.86-57.55 115.96a31.89 31.89 0 0 0-13.01 17.04c-5.4 16.83 3.87 34.85 20.7 40.24C807.61 565.72 896 688.39 896 828.8c0 17.67 14.33 32 32 32s32-14.33 32-32c0-83.2-25.81-162.36-74.63-228.94z" p-id="5437" fill="#FFA115"></path></svg>